<svg xmlns="http://www.w3.org/2000/svg" xmlns:xlink="http://www.w3.org/1999/xlink" width="672" height="284pt" viewBox="0 0 504 284"><g id="graph0" class="graph" transform="scale(1 1) rotate(0) translate(4 280)"><title>dependencies</title><polygon fill="#fff" stroke="transparent" points="-4 4 -4 -280 500 -280 500 4 -4 4"/><text x="227.009" y="-42.4" fill="#000" font-family="sans-serif" font-size="14" font-weight="bold" text-anchor="start">Legend</text><polygon fill="#ffffb3" stroke="transparent" points="14 -10 14 -30 34 -30 34 -10 14 -10"/><text x="37.629" y="-15.4" fill="#000" font-family="sans-serif" font-size="14" text-anchor="start">Declarations</text><polygon fill="#8dd3c7" stroke="transparent" points="127 -10 127 -30 147 -30 147 -10 127 -10"/><text x="150.725" y="-15.4" fill="#000" font-family="sans-serif" font-size="14" text-anchor="start">Module</text><polygon fill="#80b1d3" stroke="transparent" points="213 -10 213 -30 233 -30 233 -10 213 -10"/><text x="236.781" y="-15.4" fill="#000" font-family="sans-serif" font-size="14" text-anchor="start">Bootstrap</text><polygon fill="#fdb462" stroke="transparent" points="310 -10 310 -30 330 -30 330 -10 310 -10"/><text x="333.673" y="-15.4" fill="#000" font-family="sans-serif" font-size="14" text-anchor="start">Providers</text><polygon fill="#fb8072" stroke="transparent" points="406 -10 406 -30 426 -30 426 -10 406 -10"/><text x="429.726" y="-15.4" fill="#000" font-family="sans-serif" font-size="14" text-anchor="start">Exports</text><g id="clust1" class="cluster"><title>cluster_WorksheetModule</title><polygon fill="none" stroke="#000" stroke-dasharray="1 5" points="91 -70 91 -268 405 -268 405 -70 91 -70"/></g><g id="clust2" class="cluster"><title>cluster_WorksheetModule_declarations</title><polygon fill="none" stroke="#000" points="239 -78 239 -130 397 -130 397 -78 239 -78"/></g><g id="clust5" class="cluster"><title>cluster_WorksheetModule_exports</title><polygon fill="none" stroke="#000" points="167 -208 167 -260 329 -260 329 -208 167 -208"/></g><g id="clust7" class="cluster"><title>cluster_WorksheetModule_providers</title><polygon fill="none" stroke="#000" points="99 -78 99 -130 231 -130 231 -78 99 -78"/></g><g id="node1" class="node"><title>WorksheetComponent</title><polygon fill="#ffffb3" stroke="#000" points="388.972 -122 247.028 -122 247.028 -86 388.972 -86 388.972 -122"/><text x="318" y="-99.8" fill="#000" font-family="Times,serif" font-size="14" text-anchor="middle">WorksheetComponent</text></g><g id="node2" class="node"><title>WorksheetModule</title><polygon fill="#8dd3c7" stroke="#000" points="308.19 -187 305.19 -191 284.19 -191 281.19 -187 187.81 -187 187.81 -151 308.19 -151 308.19 -187"/><text x="248" y="-164.8" fill="#000" font-family="Times,serif" font-size="14" text-anchor="middle">WorksheetModule</text></g><g id="edge1" class="edge"><title>WorksheetComponent-&gt;WorksheetModule</title><path fill="none" stroke="#000" d="M277.5544,-122.1061C277.5544,-122.1061 277.5544,-140.991 277.5544,-140.991"/><polygon fill="#000" stroke="#000" points="274.054 -140.991 277.554 -150.991 281.054 -140.991 274.054 -140.991"/></g><g id="node3" class="node"><title>WorksheetComponent</title><polygon fill="#fb8072" stroke="#000" points="320.973 -252 175.027 -252 175.027 -216 320.973 -216 320.973 -252"/><text x="248" y="-229.8" fill="#000" font-family="Times,serif" font-size="14" text-anchor="middle">WorksheetComponent</text></g><g id="edge2" class="edge"><title>WorksheetModule-&gt;WorksheetComponent</title><path fill="none" stroke="#000" stroke-dasharray="5 2" d="M248,-187.1061C248,-187.1061 248,-205.991 248,-205.991"/><polygon fill="#000" stroke="#000" points="244.5 -205.991 248 -215.991 251.5 -205.991 244.5 -205.991"/></g><g id="node4" class="node"><title>DataService</title><ellipse cx="165" cy="-104" fill="#fdb462" stroke="#000" rx="58.441" ry="18"/><text x="165" y="-99.8" fill="#000" font-family="Times,serif" font-size="14" text-anchor="middle">DataService</text></g><g id="edge3" class="edge"><title>DataService-&gt;WorksheetModule</title><path fill="none" stroke="#000" d="M205.5628,-117.1537C205.5628,-117.1537 205.5628,-140.6938 205.5628,-140.6938"/><polygon fill="#000" stroke="#000" points="202.063 -140.694 205.563 -150.694 209.063 -140.694 202.063 -140.694"/></g></g></svg>