<svg xmlns="http://www.w3.org/2000/svg" xmlns:xlink="http://www.w3.org/1999/xlink" width="672" height="284pt" viewBox="0 0 504 284"><g id="graph0" class="graph" transform="scale(1 1) rotate(0) translate(4 280)"><title>dependencies</title><polygon fill="#fff" stroke="transparent" points="-4 4 -4 -280 500 -280 500 4 -4 4"/><text x="227.009" y="-42.4" fill="#000" font-family="sans-serif" font-size="14" font-weight="bold" text-anchor="start">Legend</text><polygon fill="#ffffb3" stroke="transparent" points="14 -10 14 -30 34 -30 34 -10 14 -10"/><text x="37.629" y="-15.4" fill="#000" font-family="sans-serif" font-size="14" text-anchor="start">Declarations</text><polygon fill="#8dd3c7" stroke="transparent" points="127 -10 127 -30 147 -30 147 -10 127 -10"/><text x="150.725" y="-15.4" fill="#000" font-family="sans-serif" font-size="14" text-anchor="start">Module</text><polygon fill="#80b1d3" stroke="transparent" points="213 -10 213 -30 233 -30 233 -10 213 -10"/><text x="236.781" y="-15.4" fill="#000" font-family="sans-serif" font-size="14" text-anchor="start">Bootstrap</text><polygon fill="#fdb462" stroke="transparent" points="310 -10 310 -30 330 -30 330 -10 310 -10"/><text x="333.673" y="-15.4" fill="#000" font-family="sans-serif" font-size="14" text-anchor="start">Providers</text><polygon fill="#fb8072" stroke="transparent" points="406 -10 406 -30 426 -30 426 -10 406 -10"/><text x="429.726" y="-15.4" fill="#000" font-family="sans-serif" font-size="14" text-anchor="start">Exports</text><g id="clust1" class="cluster"><title>cluster_AppModule</title><polygon fill="none" stroke="#000" stroke-dasharray="1 5" points="48 -70 48 -268 448 -268 448 -70 48 -70"/></g><g id="clust2" class="cluster"><title>cluster_AppModule_declarations</title><polygon fill="none" stroke="#000" points="318 -78 318 -130 440 -130 440 -78 318 -78"/></g><g id="clust4" class="cluster"><title>cluster_AppModule_imports</title><polygon fill="none" stroke="#000" points="56 -78 56 -130 310 -130 310 -78 56 -78"/></g><g id="clust6" class="cluster"><title>cluster_AppModule_bootstrap</title><polygon fill="none" stroke="#000" points="190 -208 190 -260 314 -260 314 -208 190 -208"/></g><g id="node1" class="node"><title>AppComponent</title><polygon fill="#ffffb3" stroke="#000" points="431.94 -122 326.06 -122 326.06 -86 431.94 -86 431.94 -122"/><text x="379" y="-99.8" fill="#000" font-family="Times,serif" font-size="14" text-anchor="middle">AppComponent</text></g><g id="node2" class="node"><title>AppModule</title><polygon fill="#8dd3c7" stroke="#000" points="293.657 -187 290.657 -191 269.657 -191 266.657 -187 210.343 -187 210.343 -151 293.657 -151 293.657 -187"/><text x="252" y="-164.8" fill="#000" font-family="Times,serif" font-size="14" text-anchor="middle">AppModule</text></g><g id="edge1" class="edge"><title>AppComponent-&gt;AppModule</title><path fill="none" stroke="#000" d="M379,-122.1061C379,-141.3391 379,-169 379,-169 379,-169 303.9365,-169 303.9365,-169"/><polygon fill="#000" stroke="#000" points="303.937 -165.5 293.937 -169 303.937 -172.5 303.937 -165.5"/></g><g id="node5" class="node"><title>AppComponent</title><polygon fill="#80b1d3" stroke="#000" points="306.439 -252 197.561 -252 197.561 -216 306.439 -216 306.439 -252"/><text x="252" y="-229.8" fill="#000" font-family="Times,serif" font-size="14" text-anchor="middle">AppComponent</text></g><g id="edge4" class="edge"><title>AppModule-&gt;AppComponent</title><path fill="none" stroke="#000" stroke-dasharray="1 5" d="M252,-187.1061C252,-187.1061 252,-205.991 252,-205.991"/><polygon fill="#000" stroke="#000" points="248.5 -205.991 252 -215.991 255.5 -205.991 248.5 -205.991"/></g><g id="node3" class="node"><title>RibbonModule</title><polygon fill="#8dd3c7" stroke="#000" points="302.277 -122 299.277 -126 278.277 -126 275.277 -122 201.723 -122 201.723 -86 302.277 -86 302.277 -122"/><text x="252" y="-99.8" fill="#000" font-family="Times,serif" font-size="14" text-anchor="middle">RibbonModule</text></g><g id="edge2" class="edge"><title>RibbonModule-&gt;AppModule</title><path fill="none" stroke="#000" d="M252,-122.1061C252,-122.1061 252,-140.991 252,-140.991"/><polygon fill="#000" stroke="#000" points="248.5 -140.991 252 -150.991 255.5 -140.991 248.5 -140.991"/></g><g id="node4" class="node"><title>WorksheetModule</title><polygon fill="#8dd3c7" stroke="#000" points="184.19 -122 181.19 -126 160.19 -126 157.19 -122 63.81 -122 63.81 -86 184.19 -86 184.19 -122"/><text x="124" y="-99.8" fill="#000" font-family="Times,serif" font-size="14" text-anchor="middle">WorksheetModule</text></g><g id="edge3" class="edge"><title>WorksheetModule-&gt;AppModule</title><path fill="none" stroke="#000" d="M124,-122.1061C124,-141.3391 124,-169 124,-169 124,-169 200.088,-169 200.088,-169"/><polygon fill="#000" stroke="#000" points="200.088 -172.5 210.088 -169 200.088 -165.5 200.088 -172.5"/></g></g></svg>