<svg xmlns="http://www.w3.org/2000/svg" xmlns:xlink="http://www.w3.org/1999/xlink" width="1012" height="488" viewBox="0 0 759 366"><g id="graph0" class="graph" transform="scale(1 1) rotate(0) translate(4 362)"><title>dependencies</title><polygon fill="#fff" stroke="transparent" points="-4 4 -4 -362 755 -362 755 4 -4 4"/><text x="354.509" y="-42.4" fill="#000" font-family="sans-serif" font-size="14" font-weight="bold" text-anchor="start">Legend</text><polygon fill="#ffffb3" stroke="transparent" points="141.5 -10 141.5 -30 161.5 -30 161.5 -10 141.5 -10"/><text x="165.129" y="-15.4" fill="#000" font-family="sans-serif" font-size="14" text-anchor="start">Declarations</text><polygon fill="#8dd3c7" stroke="transparent" points="254.5 -10 254.5 -30 274.5 -30 274.5 -10 254.5 -10"/><text x="278.225" y="-15.4" fill="#000" font-family="sans-serif" font-size="14" text-anchor="start">Module</text><polygon fill="#80b1d3" stroke="transparent" points="340.5 -10 340.5 -30 360.5 -30 360.5 -10 340.5 -10"/><text x="364.281" y="-15.4" fill="#000" font-family="sans-serif" font-size="14" text-anchor="start">Bootstrap</text><polygon fill="#fdb462" stroke="transparent" points="437.5 -10 437.5 -30 457.5 -30 457.5 -10 437.5 -10"/><text x="461.173" y="-15.4" fill="#000" font-family="sans-serif" font-size="14" text-anchor="start">Providers</text><polygon fill="#fb8072" stroke="transparent" points="533.5 -10 533.5 -30 553.5 -30 553.5 -10 533.5 -10"/><text x="557.226" y="-15.4" fill="#000" font-family="sans-serif" font-size="14" text-anchor="start">Exports</text><g id="clust1" class="cluster"><title>cluster_AppModule</title><polygon fill="none" stroke="#000" stroke-dasharray="1 5" points="31 -146 31 -350 431 -350 431 -146 31 -146"/></g><g id="clust2" class="cluster"><title>cluster_AppModule_declarations</title><polygon fill="none" stroke="#000" points="39 -154 39 -206 161 -206 161 -154 39 -154"/></g><g id="clust4" class="cluster"><title>cluster_AppModule_imports</title><polygon fill="none" stroke="#000" points="169 -154 169 -206 423 -206 423 -154 169 -154"/></g><g id="clust6" class="cluster"><title>cluster_AppModule_bootstrap</title><polygon fill="none" stroke="#000" points="175 -290 175 -342 299 -342 299 -290 175 -290"/></g><g id="clust8" class="cluster"><title>cluster_RibbonModule</title><polygon fill="none" stroke="#000" stroke-dasharray="1 5" points="439 -214 439 -282 743 -282 743 -214 439 -214"/></g><g id="clust9" class="cluster"><title>cluster_RibbonModule_declarations</title><polygon fill="none" stroke="#000" points="597 -222 597 -274 735 -274 735 -222 597 -222"/></g><g id="clust12" class="cluster"><title>cluster_RibbonModule_exports</title><polygon fill="none" stroke="#000" points="447 -222 447 -274 589 -274 589 -222 447 -222"/></g><g id="clust15" class="cluster"><title>cluster_WorksheetModule</title><polygon fill="none" stroke="#000" stroke-dasharray="1 5" points="8 -70 8 -138 492 -138 492 -70 8 -70"/></g><g id="clust16" class="cluster"><title>cluster_WorksheetModule_declarations</title><polygon fill="none" stroke="#000" points="326 -78 326 -130 484 -130 484 -78 326 -78"/></g><g id="clust19" class="cluster"><title>cluster_WorksheetModule_exports</title><polygon fill="none" stroke="#000" points="156 -78 156 -130 318 -130 318 -78 156 -78"/></g><g id="clust21" class="cluster"><title>cluster_WorksheetModule_providers</title><polygon fill="none" stroke="#000" points="16 -78 16 -130 148 -130 148 -78 16 -78"/></g><g id="node1" class="node"><title>AppComponent</title><polygon fill="#ffffb3" stroke="#000" points="152.94 -198 47.06 -198 47.06 -162 152.94 -162 152.94 -198"/><text x="100" y="-175.8" fill="#000" font-family="Times,serif" font-size="14" text-anchor="middle">AppComponent</text></g><g id="node2" class="node"><title>AppModule</title><polygon fill="#8dd3c7" stroke="#000" points="278.657 -266 275.657 -270 254.657 -270 251.657 -266 195.343 -266 195.343 -230 278.657 -230 278.657 -266"/><text x="237" y="-243.8" fill="#000" font-family="Times,serif" font-size="14" text-anchor="middle">AppModule</text></g><g id="edge1" class="edge"><title>AppComponent-&gt;AppModule</title><path fill="none" stroke="#000" d="M100,-198.2228C100,-218.3652 100,-248 100,-248 100,-248 185.1511,-248 185.1511,-248"/><polygon fill="#000" stroke="#000" points="185.151 -251.5 195.151 -248 185.151 -244.5 185.151 -251.5"/></g><g id="node5" class="node"><title>AppComponent</title><polygon fill="#80b1d3" stroke="#000" points="291.439 -334 182.561 -334 182.561 -298 291.439 -298 291.439 -334"/><text x="237" y="-311.8" fill="#000" font-family="Times,serif" font-size="14" text-anchor="middle">AppComponent</text></g><g id="edge4" class="edge"><title>AppModule-&gt;AppComponent</title><path fill="none" stroke="#000" stroke-dasharray="1 5" d="M237,-266.2228C237,-266.2228 237,-287.7269 237,-287.7269"/><polygon fill="#000" stroke="#000" points="233.5 -287.727 237 -297.727 240.5 -287.727 233.5 -287.727"/></g><g id="node3" class="node"><title>RibbonModule</title><polygon fill="#8dd3c7" stroke="#000" points="415.277 -198 412.277 -202 391.277 -202 388.277 -198 314.723 -198 314.723 -162 415.277 -162 415.277 -198"/><text x="365" y="-175.8" fill="#000" font-family="Times,serif" font-size="14" text-anchor="middle">RibbonModule</text></g><g id="edge2" class="edge"><title>RibbonModule-&gt;AppModule</title><path fill="none" stroke="#000" d="M365,-198.2228C365,-218.3652 365,-248 365,-248 365,-248 288.912,-248 288.912,-248"/><polygon fill="#000" stroke="#000" points="288.912 -244.5 278.912 -248 288.912 -251.5 288.912 -244.5"/></g><g id="node7" class="node"><title>RibbonComponent</title><polygon fill="#fb8072" stroke="#000" points="581.06 -266 454.94 -266 454.94 -230 581.06 -230 581.06 -266"/><text x="518" y="-243.8" fill="#000" font-family="Times,serif" font-size="14" text-anchor="middle">RibbonComponent</text></g><g id="edge6" class="edge"><title>RibbonModule-&gt;RibbonComponent</title><path fill="none" stroke="#000" stroke-dasharray="5 2" d="M415.5334,-186C440.5544,-186 465.4781,-186 465.4781,-186 465.4781,-186 465.4781,-219.7333 465.4781,-219.7333"/><polygon fill="#000" stroke="#000" points="461.978 -219.733 465.478 -229.733 468.978 -219.733 461.978 -219.733"/></g><g id="node4" class="node"><title>WorksheetModule</title><polygon fill="#8dd3c7" stroke="#000" points="297.19 -198 294.19 -202 273.19 -202 270.19 -198 176.81 -198 176.81 -162 297.19 -162 297.19 -198"/><text x="237" y="-175.8" fill="#000" font-family="Times,serif" font-size="14" text-anchor="middle">WorksheetModule</text></g><g id="edge3" class="edge"><title>WorksheetModule-&gt;AppModule</title><path fill="none" stroke="#000" d="M237,-198.2228C237,-198.2228 237,-219.7269 237,-219.7269"/><polygon fill="#000" stroke="#000" points="233.5 -219.727 237 -229.727 240.5 -219.727 233.5 -219.727"/></g><g id="node9" class="node"><title>WorksheetComponent</title><polygon fill="#fb8072" stroke="#000" points="309.973 -122 164.027 -122 164.027 -86 309.973 -86 309.973 -122"/><text x="237" y="-99.8" fill="#000" font-family="Times,serif" font-size="14" text-anchor="middle">WorksheetComponent</text></g><g id="edge8" class="edge"><title>WorksheetModule-&gt;WorksheetComponent</title><path fill="none" stroke="#000" stroke-dasharray="5 2" d="M216.9684,-161.9891C216.9684,-161.9891 216.9684,-132.145 216.9684,-132.145"/><polygon fill="#000" stroke="#000" points="220.469 -132.145 216.968 -122.145 213.469 -132.145 220.469 -132.145"/></g><g id="node6" class="node"><title>RibbonComponent</title><polygon fill="#ffffb3" stroke="#000" points="727.06 -266 604.94 -266 604.94 -230 727.06 -230 727.06 -266"/><text x="666" y="-243.8" fill="#000" font-family="Times,serif" font-size="14" text-anchor="middle">RibbonComponent</text></g><g id="edge5" class="edge"><title>RibbonComponent-&gt;RibbonModule</title><path fill="none" stroke="#000" d="M666,-229.7079C666,-207.7943 666,-174 666,-174 666,-174 425.3806,-174 425.3806,-174"/><polygon fill="#000" stroke="#000" points="425.381 -170.5 415.381 -174 425.381 -177.5 425.381 -170.5"/></g><g id="node8" class="node"><title>WorksheetComponent</title><polygon fill="#ffffb3" stroke="#000" points="475.972 -122 334.028 -122 334.028 -86 475.972 -86 475.972 -122"/><text x="405" y="-99.8" fill="#000" font-family="Times,serif" font-size="14" text-anchor="middle">WorksheetComponent</text></g><g id="edge7" class="edge"><title>WorksheetComponent-&gt;WorksheetModule</title><path fill="none" stroke="#000" d="M374.7013,-122.1097C374.7013,-131.897 374.7013,-142 374.7013,-142 374.7013,-142 257.0316,-142 257.0316,-142 257.0316,-142 257.0316,-151.8903 257.0316,-151.8903"/><polygon fill="#000" stroke="#000" points="253.532 -151.89 257.032 -161.89 260.532 -151.89 253.532 -151.89"/></g><g id="node10" class="node"><title>DataService</title><ellipse cx="82" cy="-104" fill="#fdb462" stroke="#000" rx="58.441" ry="18"/><text x="82" y="-99.8" fill="#000" font-family="Times,serif" font-size="14" text-anchor="middle">DataService</text></g><g id="edge9" class="edge"><title>DataService-&gt;WorksheetModule</title><path fill="none" stroke="#000" d="M140.3643,-104C150.8339,-104 158.4918,-104 158.4918,-104 158.4918,-104 158.4918,-180 158.4918,-180 158.4918,-180 166.7005,-180 166.7005,-180"/><polygon fill="#000" stroke="#000" points="166.701 -183.5 176.701 -180 166.7 -176.5 166.701 -183.5"/></g></g></svg>